<svg width="30" height="30" viewBox="0 0 30 30" fill="none" xmlns="http://www.w3.org/2000/svg">
    <g clip-path="url(#clip0_104_64)">
    <path d="M15.0475 12.2179C13.5105 12.205 12.2365 13.4653 12.2309 15.0047C12.2252 16.5651 13.4727 17.827 15.0242 17.8302C16.5805 17.8334 17.8416 16.5803 17.8456 15.0281C17.8496 13.4895 16.5965 12.2307 15.0483 12.2179H15.0475Z" fill="#45227A"/>
    <path d="M22.0046 11.0725C21.8823 10.0349 21.4528 9.17031 20.5319 8.60972C19.9713 8.2687 19.348 8.13358 18.7005 8.13197C16.3496 8.12554 13.9995 8.12634 11.6485 8.13197C11.3268 8.13277 11.0011 8.15288 10.6858 8.20999C9.55415 8.41428 8.74503 9.02956 8.33485 10.125C8.15469 10.606 8.10321 11.1078 8.10321 11.617C8.10241 13.8979 8.1008 16.1789 8.10562 18.4599C8.10562 18.7309 8.12654 19.0044 8.16353 19.273C8.40241 20.9829 9.60723 21.8918 11.1531 21.9609C12.4432 22.0188 13.7373 21.973 15.0298 21.973V21.9891C16.1445 21.9891 17.26 21.9931 18.3748 21.9867C18.6716 21.9851 18.9716 21.9762 19.2643 21.9296C20.4281 21.7446 21.2887 21.1438 21.7625 20.0419C21.9756 19.5456 22.0391 19.0196 22.0391 18.484C22.0399 16.3365 22.0407 14.1883 22.0383 12.0408C22.0383 11.7183 22.0424 11.3926 22.0046 11.0733V11.0725ZM14.996 19.421C12.567 19.4153 10.6319 17.4424 10.6399 14.9797C10.6472 12.5893 12.633 10.6261 15.0394 10.6309C17.4555 10.6357 19.4356 12.6207 19.4308 15.032C19.426 17.4746 17.4531 19.4266 14.996 19.421ZM19.611 11.5245C19.0568 11.5301 18.604 11.0853 18.5992 10.5328C18.5944 9.98264 19.044 9.53465 19.6021 9.53465C20.1619 9.53465 20.6011 9.97379 20.5995 10.5328C20.5978 11.0805 20.1619 11.5188 19.6118 11.5245H19.611Z" fill="#45227A"/>
    <path d="M15 0C6.71582 0 0 6.71582 0 15C0 23.2842 6.71582 30 15 30C23.2842 30 30 23.2842 30 15C30 6.71582 23.2842 0 15 0ZM23.5657 18.9273C23.5408 19.1083 23.515 19.2893 23.4909 19.4702C23.1539 21.982 21.2542 23.4836 18.9458 23.5504C16.566 23.6188 14.1828 23.5737 11.8013 23.5729C11.4475 23.5729 11.0912 23.5665 10.7405 23.5239C9.49946 23.371 8.44263 22.8491 7.6319 21.8823C6.87748 20.9823 6.53646 19.9231 6.52922 18.7633C6.51475 16.3118 6.52038 13.8603 6.52681 11.4097C6.52761 11.0887 6.56622 10.7654 6.61367 10.4477C6.88633 8.62359 8.21984 7.16381 10.0166 6.72949C10.3834 6.64102 10.7614 6.59839 11.1338 6.53485H18.9282C19.1027 6.55979 19.2764 6.58713 19.4509 6.60965C21.4367 6.86944 22.9946 8.29464 23.4121 10.2442C23.4804 10.5627 23.5158 10.8893 23.5665 11.2118V18.9298L23.5657 18.9273Z" fill="#45227A"/>
    </g>
    <defs>
    <clipPath id="clip0_104_64">
    <rect width="30" height="30" fill="white"/>
    </clipPath>
    </defs>
    </svg>