<svg width="30" height="30" viewBox="0 0 30 30" fill="none" xmlns="http://www.w3.org/2000/svg">
<path d="M14.3513 0C14.7915 0 15.2299 0 15.6701 0C15.722 0.00894668 15.7739 0.0232614 15.8258 0.0250507C16.5738 0.0518907 17.3111 0.153883 18.0429 0.304187C19.3779 0.576166 20.6537 1.02171 21.8634 1.64977C24.4492 2.99177 26.4927 4.9153 27.9654 7.42932C29.2574 9.63557 29.9517 12.0172 29.9946 14.5813C30.0072 15.2738 30.0036 15.9662 29.9248 16.6569C29.7996 17.7556 29.5652 18.8292 29.2019 19.8759C28.4271 22.1144 27.1995 24.0683 25.4996 25.7181C22.9764 28.1659 19.9576 29.5652 16.4629 29.9248C15.7059 30.0036 14.9454 30.0233 14.1831 29.9714C13.3242 29.9141 12.476 29.8032 11.6385 29.6117C10.1247 29.2646 8.70206 28.692 7.36892 27.8993C5.82285 26.9796 4.48076 25.8201 3.34984 24.4208C2.02207 22.7782 1.08082 20.937 0.531464 18.8972C0.273785 17.9435 0.114524 16.9718 0.0518938 15.9859C0.0447361 15.8696 0.0178944 15.7551 0 15.6406C0 15.2004 0 14.762 0 14.3218C0.0178944 14.2163 0.0447361 14.1125 0.0518938 14.0069C0.0858932 13.5005 0.144945 12.9977 0.229049 12.4967C0.484939 10.9543 0.969878 9.48706 1.69639 8.1039C3.20668 5.22486 5.41306 3.04366 8.31733 1.57819C10.1694 0.644161 12.1342 0.127043 14.2082 0.0250507C14.2565 0.0232614 14.303 0.00894668 14.3513 0ZM16.1962 21.2V21.014C16.1962 19.2121 16.1962 17.412 16.1962 15.6102C16.1962 15.5279 16.1962 15.4438 16.1998 15.3614C16.2106 14.9284 16.368 14.5527 16.6508 14.2306C17.0892 13.7314 17.6439 13.5828 18.2809 13.7278C18.7176 13.8262 19.0039 14.1125 19.1828 14.5151C19.3063 14.7942 19.3725 15.0913 19.385 15.3937C19.4011 15.7497 19.4047 16.1058 19.4065 16.4619C19.4083 17.9792 19.4065 19.4984 19.4065 21.0157C19.4065 21.0766 19.4101 21.1374 19.4119 21.1947C19.759 21.2251 22.3179 21.2126 22.4307 21.1786V21.0068C22.4307 19.221 22.4342 17.4335 22.4289 15.6477C22.4289 15.2773 22.4092 14.9052 22.3716 14.5384C22.3161 13.9872 22.1694 13.4558 21.9135 12.9602C21.586 12.3232 21.1136 11.8311 20.4551 11.5376C19.6051 11.1583 18.7265 11.1261 17.839 11.382C17.0677 11.6038 16.4486 12.053 15.9833 12.7096C15.9565 12.7472 15.9439 12.8045 15.8562 12.792C15.8097 12.35 15.7614 11.9044 15.7149 11.4571H13.0916C13.2347 14.7083 13.1363 17.9524 13.1757 21.2H16.1927H16.1962ZM11.329 21.2V11.4571H8.32627V21.2H11.329ZM9.81867 10.2332C10.0495 10.2368 10.275 10.201 10.4915 10.1169C11.184 9.85029 11.5652 9.15245 11.4095 8.41882C11.2789 7.80329 10.9049 7.41322 10.2911 7.25933C9.98151 7.18239 9.67194 7.18776 9.36594 7.26828C8.16165 7.58499 7.97018 8.92342 8.54996 9.65883C8.87206 10.0686 9.31047 10.2314 9.82046 10.2332H9.81867Z" fill="#45227A"/>
</svg>
