<svg width="44" height="44" viewBox="0 0 44 44" fill="none" xmlns="http://www.w3.org/2000/svg">
<path d="M21.0485 0C21.6942 0 22.3372 0 22.9828 0C23.0589 0.0131217 23.135 0.0341164 23.2111 0.0367408C24.3082 0.0761059 25.3895 0.225693 26.4629 0.446138C28.4208 0.845038 30.2921 1.4985 32.0662 2.41964C35.8586 4.3879 38.8558 7.20906 41.0158 10.8963C42.9107 14.1321 43.929 17.6251 43.992 21.3857C44.0104 22.4014 44.0051 23.417 43.8896 24.43C43.7059 26.0413 43.3621 27.6159 42.8293 29.1512C41.6929 32.4342 39.8925 35.3 37.3992 37.7196C33.6987 41.3097 29.2711 43.362 24.1455 43.8895C23.0353 44.0049 21.9199 44.0338 20.8018 43.9577C19.5421 43.8737 18.2981 43.711 17.0698 43.4302C14.8495 42.9211 12.763 42.0813 10.8077 40.9187C8.54015 39.5698 6.57177 37.8692 4.91308 35.817C2.96569 33.4078 1.5852 30.7074 0.779479 27.7157C0.40155 26.3169 0.167968 24.8919 0.0761107 23.4459C0.0656127 23.2753 0.0262451 23.1073 0 22.9394C0 22.2938 0 21.6508 0 21.0052C0.0262451 20.8504 0.0656127 20.6982 0.0761107 20.5433C0.125976 19.8006 0.212585 19.0632 0.335937 18.3284C0.711241 16.0662 1.42248 13.9143 2.48803 11.8856C4.70312 7.66307 7.93913 4.464 12.1987 2.31467C14.9151 0.944762 17.7968 0.186328 20.8386 0.0367408C20.9094 0.0341164 20.9777 0.0131217 21.0485 0ZM23.7544 31.0932V30.8202C23.7544 28.1775 23.7544 25.5375 23.7544 22.8947C23.7544 22.774 23.7544 22.6507 23.7597 22.53C23.7754 21.8949 24.0064 21.3438 24.421 20.8714C25.064 20.1392 25.8776 19.9214 26.812 20.1339C27.4523 20.2783 27.8723 20.6982 28.1347 21.2886C28.3158 21.698 28.4129 22.1337 28.4313 22.5772C28.4549 23.0994 28.4602 23.6217 28.4628 24.1439C28.4654 26.3694 28.4628 28.5974 28.4628 30.8229C28.4628 30.9121 28.468 31.0013 28.4707 31.0853C28.9798 31.1299 32.7328 31.1116 32.8982 31.0617V30.8098C32.8982 28.1907 32.9034 25.5689 32.8956 22.9499C32.8956 22.4066 32.8667 21.8608 32.8116 21.3228C32.7302 20.5145 32.515 19.735 32.1397 19.0081C31.6594 18.0738 30.9666 17.3521 30.0007 16.9217C28.7541 16.3654 27.4655 16.3181 26.1637 16.6934C25.0325 17.0188 24.1245 17.6776 23.4421 18.6407C23.4027 18.6958 23.3844 18.7798 23.2558 18.7614C23.1875 18.1132 23.1167 17.4597 23.0484 16.8036H19.2009C19.4109 21.5721 19.2665 26.33 19.3242 31.0932H23.7492H23.7544ZM16.6158 31.0932V16.8036H12.2118V31.0932H16.6158ZM14.4007 15.0086C14.7392 15.0138 15.0699 14.9614 15.3875 14.838C16.4032 14.447 16.9622 13.4235 16.7339 12.3475C16.5423 11.4447 15.9937 10.8726 15.0935 10.6469C14.6395 10.5341 14.1855 10.542 13.7367 10.6601C11.9704 11.1246 11.6896 13.0876 12.5399 14.1662C13.0123 14.7672 13.6553 15.006 14.4033 15.0086H14.4007Z" fill="#F6FFBE"/>
</svg>
