<svg width="93" height="73" viewBox="0 0 93 73" fill="none" xmlns="http://www.w3.org/2000/svg">
<g clip-path="url(#clip0_77_534)">
<path d="M92.966 49.9408L90.0981 49.5155C90.1904 51.2608 89.9109 52.534 89.2596 53.3354C88.6058 54.1392 87.743 54.5374 86.6712 54.5374C85.5994 54.5374 84.8046 54.1736 84.2942 53.4411C83.779 52.711 83.5238 51.2829 83.5238 49.1616V34.3074H92.5455V25.2518H82.5443C82.5443 25.2518 83.9929 25.2445 83.4533 14.6403H77.088V20.3701C77.088 21.4566 76.9592 22.3513 76.704 23.0568C76.4464 23.7647 76.0284 24.3079 75.4451 24.684C74.9274 25.0208 74.2712 25.2051 73.4764 25.242C73.2747 25.2518 73.0705 25.2641 72.8713 25.2961L59.7057 25.4288L59.713 25.4337C56.2909 25.4878 53.5859 26.326 51.6027 27.9557C50.2003 29.1061 49.2792 30.5441 48.8344 32.2647V25.4288H41.1956L42.3987 37.5963H41.9782C41.4192 34.9686 40.6949 32.7465 39.8103 30.9251C38.9232 29.1036 37.8635 27.7345 36.6288 26.8127C35.3918 25.8909 34.0283 25.4288 32.536 25.4288C30.2028 25.4288 28.3144 26.1441 26.8707 27.5723C25.9253 28.5063 25.1524 29.7133 24.5472 31.1783C24.2434 30.0549 23.7719 29.0422 23.1303 28.1376C21.847 26.3309 19.9246 25.4288 17.3605 25.4288C15.263 25.4288 13.5374 25.9671 12.1861 27.0413C10.8324 28.1155 9.79701 29.5903 9.07275 31.4659C8.34848 33.3414 7.70928 35.8117 7.15029 38.8745H6.72982L7.9985 25.4288H0.0656128V61.978H7.9985L7.98878 43.5399C7.98878 42.1216 8.16377 40.75 8.51375 39.4251C8.86373 38.1002 9.44703 37.0137 10.2612 36.1657C11.0754 35.3201 12.1375 34.8973 13.4426 34.8973C14.6554 34.8973 15.5984 35.2415 16.2765 35.9273C16.9522 36.6131 17.3265 37.5176 17.3945 38.6361C17.465 39.757 17.1952 41.072 16.59 42.5813H22.756C22.7511 42.923 22.7439 43.2646 22.7439 43.6161C22.7439 47.7187 23.1036 51.1305 23.8278 53.8491C24.5497 56.5702 25.6579 58.5981 27.1502 59.9329C28.6425 61.2701 30.5066 61.9386 32.745 61.9386C34.1887 61.9386 35.4963 61.5576 36.6604 60.7981C37.8246 60.0386 38.8405 58.8955 39.7033 57.3765C40.5661 55.8549 41.1834 54.0802 41.5577 52.0523H41.9782C41.932 52.743 41.8397 53.4583 41.6987 54.1957C41.5116 55.1175 41.3609 56.0393 41.2442 56.961C41.1275 57.8828 41.0692 58.6669 41.0692 59.311V73H48.832V55.8402C49.7798 57.7845 51.2138 59.2692 53.1411 60.2844C55.2847 61.4151 57.6641 61.9804 60.2744 61.9804C64.2846 61.9804 67.3955 61.0587 69.6121 59.2126C71.8262 57.3666 72.9344 54.8766 72.9344 51.7376C72.9344 50.0317 72.514 48.6011 71.6755 47.4458C70.837 46.293 69.5999 45.3466 67.9691 44.6067C66.3359 43.8693 64.0756 43.1294 61.1858 42.392L60.6268 42.2544C59.3217 41.8389 58.2839 41.4481 57.5134 41.0769C56.743 40.7082 56.1962 40.2461 55.8705 39.693C55.5448 39.14 55.3795 38.4026 55.3795 37.4783C55.3795 36.2788 55.7635 35.3668 56.534 34.7449C57.302 34.123 58.4321 33.8109 59.9268 33.8109C61.3243 33.8109 62.4666 34.064 63.3537 34.5729C64.2384 35.0817 64.8582 35.8314 65.2081 36.822C65.5581 37.8151 65.5217 39.0023 65.1036 40.3862L71.1189 40.0396C71.7144 37.965 71.9234 36.0944 71.7606 34.4254H75.7635V50.0833C75.7635 52.4431 76.077 54.4931 76.7089 56.2384C77.3384 57.9836 78.2935 59.3282 79.5768 60.2696C80.8576 61.2135 82.4544 61.6855 84.3671 61.6855C86.0466 61.6855 87.5486 61.2602 88.878 60.4122C90.2074 59.5641 91.255 58.254 92.0254 56.4866C92.7958 54.7193 93.1094 52.5365 92.9708 49.9432L92.966 49.9408ZM40.1262 50.3562C39.0763 51.8556 37.6423 52.6029 35.8244 52.6029C34.0064 52.6029 32.6867 51.8433 31.7315 50.3218C30.7764 48.8002 30.2976 46.588 30.2976 43.685C30.2976 40.782 30.7764 38.5697 31.7315 37.0482C32.6867 35.5266 34.145 34.7671 36.1039 34.7671C38.0628 34.7671 39.3679 35.5266 40.3012 37.0482C41.2345 38.5697 41.7011 40.782 41.7011 43.685C41.7011 46.588 41.1762 48.8592 40.1262 50.3562ZM58.2474 43.7071C58.6679 43.7538 59.1102 43.8693 59.5769 44.0537L60.2768 44.2602C61.6281 44.6756 62.7243 45.1377 63.5628 45.6441C64.4013 46.1529 64.9724 46.6937 65.2762 47.2713C65.58 47.8489 65.7307 48.4831 65.7307 49.1739C65.7307 50.4668 65.2641 51.4697 64.3332 52.185C63.3999 52.9003 62.0948 53.2567 60.4154 53.2567C58.9693 53.2567 57.7468 52.979 56.743 52.4259C55.7392 51.8728 55.0393 51.0764 54.6455 50.0391C54.2494 49.0018 54.2615 47.8121 54.6796 46.4749L48.8344 46.8706V37.4464C49.0337 38.1912 49.3254 38.8475 49.7142 39.4128C50.5065 40.5657 51.5784 41.4678 52.9321 42.1118C54.2834 42.7583 56.0552 43.2892 58.2474 43.7046V43.7071Z" fill="#F6FFBE"/>
<path d="M2.79255 22.693C1.70858 22.1719 0.918696 21.4025 0.42532 20.3824C-0.0680547 19.3623 -0.133676 18.1357 0.233317 16.7026H2.3575C2.22869 17.5286 2.33077 18.2168 2.66374 18.7699C2.9967 19.323 3.49008 19.731 4.14386 19.9916C4.79765 20.2521 5.55594 20.3824 6.41387 20.3824C7.55131 20.3824 8.45786 20.1612 9.13351 19.7138C9.80917 19.2689 10.147 18.6765 10.147 17.9391C10.147 17.6343 10.023 17.3811 9.77758 17.1746C9.52967 16.9681 9.16511 16.7788 8.68389 16.6043C8.20266 16.4298 7.41278 16.1815 6.31666 15.8546C6.01529 15.7686 5.71634 15.6801 5.41497 15.5941C4.12685 15.2032 3.11336 14.7755 2.37209 14.3085C1.63081 13.8414 1.10584 13.3154 0.794744 12.7304C0.483651 12.1454 0.328104 11.4596 0.328104 10.6804C0.328104 9.31366 0.82634 8.23211 1.82524 7.44061C2.82414 6.64911 4.24351 6.25336 6.09063 6.25336C7.37875 6.25336 8.53077 6.49671 9.55155 6.98586C10.5699 7.47502 11.3112 8.20261 11.773 9.16618C12.2347 10.1322 12.3052 11.2875 11.982 12.6345H9.85778C9.98659 11.8971 9.90639 11.2728 9.61717 10.7615C9.32795 10.2526 8.88075 9.87165 8.28044 9.62092C7.68012 9.37266 6.97044 9.2473 6.15625 9.2473C5.10388 9.2473 4.29941 9.44148 3.74284 9.83232C3.18385 10.2232 2.90678 10.7664 2.90678 11.4596C2.90678 11.7865 3.06719 12.079 3.39043 12.3396C3.71125 12.6001 4.14143 12.8336 4.67856 13.0401C5.21568 13.2466 5.85731 13.458 6.61074 13.6743C8.24155 14.0873 9.50294 14.5322 10.3925 15.009C11.282 15.4859 11.9066 16.0144 12.259 16.5871C12.6139 17.1623 12.7913 17.853 12.7913 18.6544C12.7913 20.1317 12.2396 21.3017 11.1337 22.1719C10.0279 23.0396 8.45543 23.4746 6.41874 23.4746C5.08687 23.4746 3.88138 23.2141 2.79741 22.693H2.79255Z" fill="#F6FFBE"/>
<path d="M16.748 22.7741C16.104 22.3071 15.6544 21.6508 15.3967 20.8052C15.1391 19.9596 15.0103 18.9051 15.0103 17.6466V9.86428H12.8861V6.73761H13.7222C14.1524 6.73761 14.495 6.65649 14.7527 6.49426C15.0103 6.33202 15.1926 6.09851 15.2995 5.7937C15.4065 5.4889 15.4599 5.10053 15.4599 4.6212V1.59531H17.8733V2.31061C17.8733 3.13652 17.8612 3.85182 17.8417 4.45897C17.8199 5.06611 17.7615 5.5184 17.6643 5.81091C17.5671 6.10342 17.4116 6.32711 17.1977 6.47951V6.74006H23.1522V9.86674H17.9049V17.0615C17.9049 18.3201 18.0386 19.1829 18.3084 19.6499C18.5757 20.1169 19.0764 20.3504 19.8055 20.3504C20.4496 20.3504 21.0013 20.139 21.4631 19.7163C21.9248 19.2935 22.1436 18.6789 22.1241 17.8776H23.7015C23.7865 18.9198 23.6529 19.8687 23.298 20.7265C22.9432 21.5844 22.4279 22.2579 21.7523 22.7446C21.0766 23.2338 20.3086 23.4771 19.4507 23.4771C18.2914 23.4771 17.3897 23.2436 16.7456 22.7766L16.748 22.7741Z" fill="#F6FFBE"/>
<path d="M26.6617 6.74005V15.7268C26.6617 17.2041 26.9364 18.3102 27.4832 19.0476C28.0301 19.7851 28.9269 20.1538 30.1713 20.1538C31.0511 20.1538 31.841 19.9104 32.5385 19.4213C33.236 18.9321 33.7829 18.2537 34.1814 17.386C34.5776 16.5183 34.7769 15.508 34.7769 14.3576V6.74005H37.6424V22.9855H34.7769L34.9373 19.436H34.7453C34.4439 20.2619 33.9943 20.9772 33.394 21.5844C32.7937 22.1915 32.1107 22.6586 31.35 22.9855C30.5869 23.31 29.8091 23.4746 29.0168 23.4746C28.0714 23.4746 27.2037 23.2313 26.409 22.7421C25.6142 22.253 24.9774 21.4934 24.4938 20.4635C24.0101 19.4336 23.7695 18.148 23.7695 16.6068V6.74005H26.6666H26.6617Z" fill="#F6FFBE"/>
<path d="M41.9539 22.4177C41.0085 21.7122 40.2964 20.7142 39.8127 19.4213C39.3291 18.1308 39.0884 16.6043 39.0884 14.8468C39.0884 12.9811 39.3339 11.4079 39.8297 10.1248C40.3231 8.84416 41.0376 7.87814 41.9709 7.22675C42.9042 6.57536 44.0368 6.25089 45.3662 6.25089C46.6957 6.25089 47.765 6.58765 48.6327 7.26116C49.5028 7.93468 50.1833 8.94249 50.6767 10.2895H50.8687C50.8468 10.0953 50.8371 9.95276 50.8371 9.86672C50.8371 9.78069 50.8249 9.65041 50.8055 9.47589C50.7836 9.10718 50.7666 8.82942 50.7569 8.64506C50.7447 8.4607 50.7301 8.1854 50.7083 7.81423V0H53.6053V22.9855H50.7399L50.8687 19.436H50.7083C50.0861 20.8912 49.3764 21.9261 48.5841 22.5455C47.7893 23.1649 46.7175 23.4746 45.3638 23.4746C44.01 23.4746 42.8945 23.1207 41.9515 22.4152L41.9539 22.4177ZM49.6462 18.851C50.4191 17.9391 50.8055 16.6166 50.8055 14.8787C50.8055 13.7505 50.6281 12.7845 50.2732 11.9807C49.9184 11.1769 49.408 10.5648 48.7445 10.142C48.0786 9.71924 47.296 9.50785 46.3943 9.50785C45.4926 9.50785 44.6565 9.68237 44.0125 10.029C43.3684 10.3755 42.875 10.9458 42.5323 11.7373C42.1897 12.5288 42.0171 13.5661 42.0171 14.8468C42.0171 16.1275 42.2164 17.0714 42.6125 17.8751C43.0087 18.6789 43.5458 19.2689 44.2215 19.6499C44.8971 20.0309 45.653 20.2202 46.4915 20.2202C47.8209 20.2202 48.8733 19.7654 49.6462 18.8535V18.851Z" fill="#F6FFBE"/>
<path d="M55.9896 4.29672C55.6469 3.95013 55.4743 3.43885 55.4743 2.76534C55.4743 2.09182 55.6469 1.58792 55.9896 1.25116C56.3322 0.914403 56.8378 0.747253 57.5037 0.747253C58.1696 0.747253 58.6411 0.914403 58.9838 1.25116C59.3265 1.58792 59.4991 2.09182 59.4991 2.76534C59.4991 3.43885 59.3265 3.94767 58.9838 4.29672C58.6411 4.64331 58.1478 4.81783 57.5037 4.81783C56.8596 4.81783 56.3347 4.64331 55.9896 4.29672ZM58.9498 6.74005V22.9855H56.0527V6.74005H58.9498Z" fill="#F6FFBE"/>
<path d="M63.7475 22.4324C62.6538 21.7393 61.8202 20.7388 61.2515 19.436C60.6827 18.1333 60.3984 16.6043 60.3984 14.8443C60.3984 13.0844 60.6876 11.4964 61.2685 10.2059C61.8469 8.91546 62.6903 7.93223 63.7961 7.25871C64.9019 6.5852 66.2265 6.24844 67.7723 6.24844C69.318 6.24844 70.6256 6.5852 71.6998 7.25871C72.7716 7.93223 73.5931 8.913 74.1618 10.2059C74.7306 11.4964 75.0149 13.045 75.0149 14.8443C75.0149 16.6437 74.7257 18.1972 74.1448 19.4999C73.5664 20.8027 72.7279 21.7909 71.6342 22.4619C70.5405 23.1354 69.2305 23.4722 67.7066 23.4722C66.1828 23.4722 64.8412 23.1256 63.7475 22.43V22.4324ZM70.2343 19.6499C70.9318 19.2271 71.4616 18.6077 71.8286 17.794C72.1932 16.9804 72.3755 15.9972 72.3755 14.8468C72.3755 13.6964 72.1932 12.7476 71.8286 11.934C71.4641 11.1204 70.9318 10.5009 70.2343 10.0781C69.5368 9.65534 68.7056 9.44394 67.7382 9.44394C66.7709 9.44394 65.9081 9.65534 65.2106 10.0781C64.5131 10.5009 63.976 11.1204 63.6017 11.934C63.225 12.7476 63.0378 13.7185 63.0378 14.8468C63.0378 15.9751 63.225 16.9804 63.6017 17.794C63.976 18.6077 64.5179 19.2271 65.2276 19.6499C65.9373 20.0727 66.7734 20.2841 67.7382 20.2841C68.7031 20.2841 69.5368 20.0727 70.2343 19.6499Z" fill="#F6FFBE"/>
</g>
<defs>
<clipPath id="clip0_77_534">
<rect width="93" height="73" fill="white"/>
</clipPath>
</defs>
</svg>
