<svg width="44" height="44" viewBox="0 0 44 44" fill="none" xmlns="http://www.w3.org/2000/svg">
<g clip-path="url(#clip0_104_110)">
<path d="M20.625 0C21.542 0 22.458 0 23.375 0C23.485 0.0240625 23.5941 0.061875 23.7059 0.0704687C27.0265 0.318828 30.146 1.25039 33.0017 2.95711C38.8291 6.4393 42.4084 11.5216 43.6631 18.2093C43.8127 19.0077 43.89 19.8198 44.0009 20.6259V23.3759C43.9768 23.4867 43.9381 23.5959 43.9295 23.7076C43.6399 27.4794 42.4755 30.9624 40.3631 34.0974C36.8577 39.3001 32.0109 42.5064 25.832 43.6597C25.0198 43.8109 24.1948 43.8891 23.3759 44.0009H20.6259C20.5159 43.9768 20.4067 43.939 20.2959 43.9295C15.9139 43.5806 11.9685 42.0784 8.51383 39.3628C4.06742 35.8677 1.32344 31.3268 0.329141 25.7486C0.189062 24.9631 0.108281 24.1665 0 23.375C0 22.458 0 21.542 0 20.625C0.0635937 20.1016 0.117734 19.5774 0.190781 19.0558C0.819844 14.5819 2.61937 10.6399 5.65297 7.2918C9.0518 3.54062 13.2516 1.19883 18.2523 0.331719C19.0386 0.195078 19.8335 0.109141 20.625 0ZM34.0312 15.803C33.7992 15.9354 33.6497 16.0153 33.5045 16.103C29.9355 18.2738 26.3605 20.4359 22.8035 22.6273C22.2054 22.996 21.7353 22.9831 21.1621 22.5775C18.1844 20.4677 15.186 18.3863 12.1937 16.2955C11.5534 15.8477 10.9106 15.4026 10.1612 14.8818C10.0882 15.406 9.9782 15.8357 9.97648 16.2662C9.96273 20.0759 9.96789 23.8855 9.96875 27.6942C9.96875 29.437 11.0327 30.4958 12.7858 30.4958C18.9295 30.4966 25.0731 30.4966 31.2168 30.4958C32.9665 30.4958 34.0295 29.4353 34.0304 27.6908C34.0321 23.9104 34.0304 20.1291 34.0304 16.3487L34.0312 15.803ZM11.807 13.5936C11.7975 13.6331 11.7872 13.6735 11.7777 13.713C15.1972 16.1021 18.6166 18.4912 22.0387 20.882C25.7357 18.6312 29.4104 16.3943 33.1246 14.1333C32.5944 13.677 32.01 13.5025 31.3629 13.5025C25.123 13.5025 18.883 13.5008 12.6431 13.5059C12.3647 13.5059 12.0854 13.5635 11.807 13.5936Z" fill="#F6FFBE"/>
</g>
<defs>
<clipPath id="clip0_104_110">
<rect width="44" height="44" fill="white"/>
</clipPath>
</defs>
</svg>
