<svg width="30" height="30" viewBox="0 0 30 30" fill="none" xmlns="http://www.w3.org/2000/svg">
    <g clip-path="url(#clip0_102_48)">
    <path d="M14.0625 0C14.6877 0 15.3123 0 15.9375 0C16.0125 0.0164062 16.0869 0.0421875 16.1631 0.0480469C18.4271 0.217383 20.5541 0.852539 22.5012 2.01621C26.4744 4.39043 28.9148 7.85566 29.7703 12.4154C29.8723 12.9598 29.925 13.5135 30.0006 14.0631V15.9381C29.9842 16.0137 29.9578 16.0881 29.952 16.1643C29.7545 18.7359 28.9605 21.1107 27.5203 23.2482C25.1303 26.7955 21.8256 28.9816 17.6127 29.768C17.059 29.8711 16.4965 29.9244 15.9381 30.0006H14.0631C13.9881 29.9842 13.9137 29.9584 13.8381 29.952C10.8504 29.7141 8.16035 28.6898 5.80488 26.8383C2.77324 24.4553 0.902344 21.3592 0.224414 17.5559C0.128906 17.0203 0.0738281 16.4771 0 15.9375C0 15.3123 0 14.6877 0 14.0625C0.0433594 13.7057 0.0802734 13.3482 0.130078 12.9926C0.558984 9.94219 1.78594 7.25449 3.8543 4.97168C6.17168 2.41406 9.03516 0.817383 12.4447 0.226172C12.9809 0.133008 13.5229 0.0744141 14.0625 0ZM23.2031 10.7748C23.0449 10.865 22.943 10.9195 22.8439 10.9793C20.4105 12.4594 17.973 13.9336 15.5479 15.4277C15.14 15.6791 14.8195 15.6703 14.4287 15.3937C12.3984 13.9553 10.3541 12.5361 8.31387 11.1105C7.87734 10.8053 7.43906 10.5018 6.92812 10.1467C6.87832 10.5041 6.80332 10.7971 6.80215 11.0906C6.79277 13.6881 6.79629 16.2855 6.79687 18.8824C6.79687 20.0707 7.52226 20.7926 8.71758 20.7926C12.9064 20.7932 17.0953 20.7932 21.2842 20.7926C22.4771 20.7926 23.202 20.0695 23.2025 18.8801C23.2037 16.3025 23.2025 13.7244 23.2025 11.1469L23.2031 10.7748ZM8.05019 9.26836C8.04375 9.29531 8.03672 9.32285 8.03027 9.3498C10.3617 10.9787 12.6932 12.6076 15.0264 14.2377C17.5471 12.7031 20.0525 11.1779 22.585 9.63633C22.2234 9.3252 21.825 9.20625 21.3838 9.20625C17.1293 9.20625 12.8748 9.20508 8.62031 9.20859C8.43047 9.20859 8.24004 9.24785 8.05019 9.26836Z" fill="#45227A"/>
    </g>
    <defs>
    <clipPath id="clip0_102_48">
    <rect width="30" height="30" fill="white"/>
    </clipPath>
    </defs>
    </svg>