<svg class="scroll-down-svg" width="155" height="157" viewBox="0 0 155 157" fill="none" xmlns="http://www.w3.org/2000/svg">
<path d="M82.9808 47.6923C82.9808 46.3115 81.8615 45.1923 80.4808 45.1923C79.1001 45.1923 77.9808 46.3115 77.9808 47.6923H82.9808ZM78.713 104.604C79.6893 105.581 81.2722 105.581 82.2485 104.604L98.1584 88.6944C99.1347 87.718 99.1347 86.1351 98.1584 85.1588C97.1821 84.1825 95.5992 84.1825 94.6229 85.1588L80.4808 99.301L66.3386 85.1588C65.3623 84.1825 63.7794 84.1825 62.8031 85.1588C61.8268 86.1351 61.8268 87.718 62.8031 88.6944L78.713 104.604ZM77.9808 47.6923V102.836H82.9808V47.6923H77.9808Z" fill="#7952B3"/>
<g clip-path="url(#clip0_92_138)">
<path d="M82.0642 12.5766C81.1381 12.074 80.4687 11.3729 80.0561 10.4782C79.6434 9.58353 79.593 8.51819 79.9093 7.29143L82.9674 7.35138C82.8574 7.79874 82.9032 8.19997 83.0958 8.54586C83.293 8.89636 83.5956 9.17308 84.0036 9.38522C84.4162 9.59276 84.9114 9.7265 85.4983 9.78185C86.1677 9.84641 86.7041 9.78185 87.1121 9.58815C87.5202 9.39906 87.7403 9.10851 87.7769 8.72111C87.7907 8.55509 87.7219 8.39367 87.566 8.24148C87.4102 8.08928 87.1717 7.95093 86.8462 7.81718C86.5207 7.68344 86.0393 7.5128 85.402 7.30065L85.3057 7.26376C85.0948 7.19458 84.8701 7.13001 84.6409 7.07467C83.6093 6.738 82.7886 6.40134 82.1788 6.05083C81.5691 5.70494 81.1335 5.29448 80.8767 4.81946C80.6154 4.34444 80.5191 3.77718 80.5787 3.12229C80.6796 2.04311 81.2069 1.22219 82.1651 0.659543C83.1187 0.0968933 84.4346 -0.106029 86.1081 0.0507746C87.213 0.156848 88.1987 0.442785 89.0653 0.913197C89.9318 1.38361 90.5691 2.05694 90.9817 2.92859C91.3898 3.80023 91.4448 4.84713 91.1468 6.0785L88.1437 5.97243C88.2354 5.53891 88.1896 5.15613 88.0108 4.82407C87.832 4.49202 87.5569 4.22914 87.1855 4.03083C86.8141 3.83252 86.3602 3.71261 85.8284 3.66188C85.2278 3.60654 84.7509 3.66188 84.4071 3.83252C84.0632 4.00316 83.8706 4.27526 83.8386 4.64421C83.8202 4.84713 83.8982 5.03622 84.077 5.21608C84.2558 5.39595 84.5034 5.55275 84.8289 5.69572C85.1544 5.83869 85.5441 5.98165 86.0026 6.12462L86.1997 6.17074C87.4835 6.53047 88.4876 6.88558 89.2166 7.24531C89.941 7.60043 90.4637 8.01088 90.7754 8.47668C91.0872 8.93787 91.211 9.50513 91.1468 10.1785C91.0322 11.3914 90.4637 12.2907 89.4412 12.8718C88.4142 13.4529 86.9975 13.6604 85.1911 13.4898C84.0357 13.3791 82.9949 13.0747 82.0734 12.572L82.0642 12.5766Z" fill="#7952B3"/>
<path d="M92.8065 13.8588C92.0592 13.1116 91.5778 12.1847 91.3623 11.0732C91.1468 9.96172 91.2247 8.72113 91.5961 7.3514C91.9675 5.98167 92.5452 4.87943 93.3384 4.04468C94.1315 3.20993 95.0577 2.66573 96.1168 2.41207C97.1759 2.15842 98.2992 2.19532 99.4866 2.51815C100.541 2.80408 101.426 3.28372 102.141 3.95244C102.857 4.62117 103.32 5.4513 103.53 6.44747C103.741 7.44364 103.627 8.5551 103.191 9.78647L99.9956 9.04396C100.106 8.51359 100.106 8.06163 100.009 7.69268C99.9085 7.32373 99.7159 7.02396 99.427 6.79797C99.1382 6.57199 98.7852 6.40135 98.3634 6.28605C97.8132 6.13386 97.3043 6.12925 96.8412 6.263C96.3781 6.40135 95.9884 6.63656 95.6675 6.98245C95.3465 7.32373 95.1219 7.74802 94.9843 8.25533C94.8239 8.84104 94.8055 9.3714 94.9201 9.84182C95.0348 10.3122 95.264 10.7088 95.6079 11.0271C95.9471 11.3499 96.3873 11.5805 96.9191 11.7281C97.2905 11.8295 97.6481 11.8757 97.992 11.8618C98.3358 11.848 98.6522 11.7788 98.9502 11.6497C99.2482 11.5205 99.5004 11.3268 99.7067 11.0686L102.274 12.9779C101.857 13.7573 101.325 14.3799 100.688 14.8457C100.046 15.3115 99.3078 15.5974 98.4688 15.7127C97.6298 15.8234 96.7036 15.745 95.6996 15.4683C94.5167 15.1455 93.5493 14.6105 92.8019 13.8634L92.8065 13.8588Z" fill="#7952B3"/>
<path d="M106.332 5.00854L109.78 6.63193L107.533 10.5059L107.694 10.5797C108.427 9.67577 109.133 8.99321 109.812 8.53663C110.486 8.08006 111.146 7.81257 111.788 7.72956C112.43 7.64654 113.067 7.75723 113.709 8.057C114.653 8.49974 115.226 9.13618 115.428 9.95709C115.63 10.778 115.543 11.6681 115.167 12.6182C114.791 13.5682 114.232 14.4583 113.493 15.2884L110.875 13.974C111.155 13.5267 111.334 13.1208 111.412 12.7565C111.49 12.3922 111.453 12.0693 111.302 11.7972C111.15 11.5205 110.88 11.2899 110.481 11.1055C109.963 10.861 109.459 10.8057 108.973 10.9394C108.482 11.0732 108.037 11.3499 107.643 11.7696C107.244 12.1892 106.905 12.6966 106.63 13.2961L104.379 18.1432L100.977 16.5429L106.336 5.00854H106.332Z" fill="#7952B3"/>
<path d="M112.691 22.0355C112.228 21.044 112.081 19.9879 112.26 18.8718C112.439 17.7557 112.929 16.6258 113.736 15.4774C114.552 14.3198 115.451 13.4667 116.441 12.9271C117.427 12.3875 118.468 12.1845 119.559 12.3183C120.65 12.452 121.755 12.9178 122.883 13.7203C123.965 14.4905 124.735 15.3621 125.189 16.326C125.643 17.2899 125.781 18.3276 125.593 19.439C125.405 20.5505 124.91 21.685 124.094 22.8472C123.287 23.9956 122.393 24.8442 121.407 25.393C120.421 25.9464 119.389 26.1632 118.307 26.0479C117.225 25.9326 116.143 25.4852 115.061 24.715C113.952 23.9264 113.163 23.0317 112.696 22.0401L112.691 22.0355ZM118.761 22.0816C119.234 22.137 119.683 22.0586 120.105 21.8418C120.527 21.6251 120.907 21.2746 121.246 20.7903C121.567 20.3337 121.76 19.8726 121.833 19.4068C121.902 18.941 121.833 18.489 121.622 18.0601C121.411 17.6312 121.058 17.2392 120.563 16.8887C120.054 16.5289 119.564 16.3168 119.091 16.2614C118.619 16.2015 118.165 16.2799 117.739 16.4967C117.313 16.7088 116.937 17.0455 116.616 17.502C116.276 17.9863 116.079 18.4659 116.02 18.941C115.965 19.416 116.043 19.8726 116.263 20.3107C116.483 20.7442 116.84 21.1408 117.331 21.4913C117.812 21.8326 118.289 22.0309 118.761 22.0909V22.0816Z" fill="#7952B3"/>
<path d="M120.164 28.1924L132.222 15.0209L134.987 17.5805L122.929 30.752L120.164 28.1924Z" fill="#7952B3"/>
<path d="M123.456 31.2732L136.418 18.9963L138.994 21.7496L126.033 34.0265L123.456 31.2732Z" fill="#7952B3"/>
<path d="M130.311 38.5092C130.361 37.5822 130.709 36.6829 131.356 35.8067C132.002 34.9304 132.924 34.1187 134.125 33.367C135.368 32.5876 136.514 32.1079 137.568 31.9235C138.623 31.739 139.563 31.8358 140.388 32.2048C141.213 32.5737 141.906 33.2102 142.465 34.1187C143.034 35.0365 143.222 35.9865 143.024 36.9642C142.827 37.942 142.231 38.9658 141.227 40.0357L141.333 40.2064C141.516 40.0542 141.654 39.9389 141.75 39.8697C141.846 39.8005 141.979 39.6945 142.144 39.5469C142.58 39.1964 142.96 38.892 143.286 38.6337C143.611 38.3801 143.914 38.1541 144.194 37.9604L148.71 35.1287L150.695 38.334L135.588 47.8068L133.603 44.5969L136.367 43.1626L136.275 43.0104C135.015 43.3425 133.983 43.3701 133.172 43.0888C132.365 42.8075 131.668 42.1941 131.081 41.2487C130.521 40.3447 130.265 39.427 130.315 38.5L130.311 38.5092ZM136.798 41.6176C137.458 41.7606 138.164 41.5992 138.903 41.1334C139.375 40.8382 139.732 40.4877 139.975 40.0865C140.218 39.6852 140.333 39.2471 140.315 38.7859C140.296 38.3201 140.127 37.8359 139.815 37.3332C139.485 36.8028 139.127 36.42 138.747 36.1802C138.362 35.945 137.944 35.8528 137.49 35.9081C137.037 35.9635 136.551 36.1525 136.019 36.4846C135.519 36.7982 135.148 37.1579 134.909 37.5684C134.666 37.9789 134.57 38.417 134.611 38.892C134.657 39.3624 134.822 39.8328 135.116 40.3079C135.569 41.0411 136.129 41.4793 136.789 41.6176H136.798Z" fill="#7952B3"/>
<path d="M136.858 50.0758C137.023 48.992 137.49 48.0328 138.256 47.2072C139.022 46.3817 140.058 45.7176 141.365 45.2195C142.685 44.7168 143.905 44.5139 145.023 44.6246C146.142 44.7307 147.119 45.1457 147.948 45.8698C148.778 46.5939 149.439 47.6039 149.929 48.8998C150.401 50.1496 150.557 51.3026 150.397 52.3587C150.236 53.4148 149.773 54.351 149.003 55.172C148.233 55.9883 147.187 56.6524 145.867 57.1551C144.56 57.6532 143.35 57.8561 142.222 57.7592C141.099 57.6624 140.122 57.2658 139.288 56.5601C138.453 55.8545 137.802 54.8814 137.33 53.6316C136.849 52.3495 136.688 51.1688 136.853 50.0851L136.858 50.0758ZM141.864 53.5209C142.227 53.8345 142.644 54.019 143.111 54.0743C143.584 54.1297 144.093 54.0513 144.643 53.8437C145.161 53.6454 145.578 53.3733 145.899 53.0228C146.215 52.6769 146.408 52.2619 146.472 51.7868C146.536 51.3118 146.458 50.7861 146.243 50.2188C146.023 49.6331 145.729 49.1857 145.372 48.8721C145.01 48.5585 144.592 48.3694 144.12 48.3049C143.648 48.2403 143.153 48.3049 142.63 48.5078C142.08 48.7199 141.649 49.0059 141.337 49.3702C141.025 49.7346 140.837 50.1588 140.778 50.6431C140.718 51.1273 140.796 51.6531 141.012 52.225C141.223 52.7784 141.507 53.2119 141.869 53.5255L141.864 53.5209Z" fill="#7952B3"/>
<path d="M152.277 55.4164L152.863 59.5071C150.787 60.305 148.976 60.9506 147.435 61.4487C145.894 61.9468 144.386 62.3942 142.914 62.8C142.882 62.8231 142.859 62.8323 142.841 62.8369C142.823 62.8415 142.8 62.8415 142.768 62.8461L142.795 63.0214C143.597 63.0398 144.395 63.0537 145.193 63.0583C146.449 63.0629 147.811 63.0767 149.278 63.1044C150.741 63.1321 152.116 63.169 153.395 63.2243L153.877 66.5633C152.694 66.9738 151.456 67.3842 150.154 67.7947C148.852 68.2051 147.559 68.6064 146.275 68.9984L143.758 69.7501L143.785 69.953C144.262 69.953 144.666 69.9438 145.005 69.93C146.312 69.9115 147.719 69.9254 149.241 69.9669C150.759 70.013 152.483 70.1144 154.409 70.2805L154.995 74.3712L141.997 72.9277L141.31 68.1313L150.301 65.4426L150.282 65.3181H140.906L140.209 60.4756L152.272 55.4164H152.277Z" fill="#7952B3"/>
<path d="M141.3 83.8993L147.655 84.4528C148.494 84.5265 149.141 84.402 149.599 84.0884C150.058 83.7702 150.314 83.2491 150.378 82.525C150.424 81.9854 150.328 81.4919 150.09 81.0492C149.851 80.6018 149.484 80.2421 148.994 79.9608C148.503 79.6795 147.916 79.5088 147.229 79.4489L141.727 78.9692L142.052 75.2059L154.665 76.3036L154.34 80.0669L150.035 79.2321L150.021 79.4074C151.149 79.8132 152.043 80.2974 152.694 80.8601C153.345 81.4227 153.794 82.0453 154.042 82.7233C154.289 83.4012 154.376 84.1391 154.308 84.9508C154.225 85.9286 153.936 86.6803 153.446 87.206C152.955 87.7318 152.313 88.0731 151.52 88.2345C150.731 88.3959 149.773 88.4282 148.65 88.3313L140.989 87.6672L141.314 83.8993H141.3Z" fill="#7952B3"/>
<path d="M145.399 98.5375C145.762 99.3308 145.743 100.207 145.349 101.157C145.175 101.577 144.936 101.936 144.638 102.232C144.34 102.527 143.964 102.854 143.506 103.209C143.153 103.481 142.891 103.703 142.713 103.864C142.534 104.026 142.405 104.21 142.318 104.413C142.158 104.8 142.167 105.142 142.346 105.428C142.525 105.714 142.804 105.935 143.176 106.096L142.162 108.527C141.044 108.02 140.301 107.374 139.934 106.594C139.567 105.815 139.581 104.953 139.975 103.998C140.15 103.578 140.384 103.219 140.672 102.919C140.961 102.619 141.333 102.301 141.782 101.96C142.126 101.701 142.392 101.485 142.575 101.305C142.758 101.125 142.896 100.936 142.979 100.733C143.139 100.341 143.148 99.9995 142.997 99.7089C142.846 99.4138 142.561 99.1832 142.144 99.0033L143.157 96.5682C144.29 97.0848 145.037 97.7397 145.399 98.5329V98.5375Z" fill="#7952B3"/>
<path d="M129.485 113.817C130.421 113.332 131.374 113.171 132.342 113.337C133.309 113.503 134.212 114.056 135.038 115.016L133.263 117.52C132.956 117.174 132.608 116.985 132.209 116.953C131.81 116.92 131.411 117.013 131.007 117.234C130.604 117.46 130.214 117.797 129.838 118.253C129.407 118.774 129.155 119.254 129.086 119.701C129.013 120.144 129.128 120.495 129.426 120.744C129.554 120.85 129.724 120.882 129.935 120.841C130.146 120.799 130.398 120.679 130.691 120.481C130.985 120.287 131.397 119.983 131.934 119.572L132.016 119.512C132.195 119.374 132.374 119.226 132.548 119.065C133.405 118.396 134.148 117.907 134.776 117.598C135.404 117.289 135.987 117.16 136.523 117.211C137.059 117.262 137.578 117.502 138.082 117.921C138.907 118.613 139.283 119.517 139.21 120.628C139.132 121.74 138.559 122.948 137.481 124.249C136.771 125.107 135.977 125.761 135.102 126.218C134.226 126.67 133.314 126.822 132.369 126.67C131.425 126.518 130.531 125.969 129.692 125.028L131.475 122.593C131.778 122.911 132.117 123.091 132.493 123.128C132.864 123.165 133.236 123.087 133.607 122.888C133.978 122.69 134.336 122.386 134.675 121.97C135.06 121.505 135.285 121.076 135.336 120.693C135.391 120.31 135.276 120.001 134.992 119.761C134.836 119.632 134.634 119.591 134.391 119.637C134.144 119.683 133.873 119.803 133.575 119.992C133.277 120.181 132.938 120.425 132.557 120.725L132.41 120.864C131.393 121.726 130.531 122.358 129.829 122.759C129.123 123.16 128.495 123.359 127.94 123.359C127.385 123.359 126.849 123.137 126.331 122.708C125.4 121.929 124.983 120.951 125.084 119.771C125.185 118.59 125.813 117.299 126.973 115.892C127.716 114.993 128.555 114.306 129.485 113.821V113.817Z" fill="#7952B3"/>
<path d="M122.365 122.021C123.401 121.823 124.433 121.943 125.464 122.39C126.496 122.837 127.473 123.603 128.39 124.682C129.307 125.761 129.884 126.868 130.127 127.994C130.366 129.123 130.292 130.198 129.903 131.222C129.513 132.246 128.853 133.159 127.917 133.961C127.087 134.676 126.193 135.142 125.24 135.359C124.286 135.575 123.342 135.492 122.406 135.11C121.471 134.722 120.618 134.003 119.857 132.947L122.269 130.71C122.645 131.097 123.012 131.356 123.374 131.48C123.736 131.605 124.089 131.609 124.437 131.499C124.786 131.388 125.125 131.19 125.46 130.904C125.895 130.53 126.184 130.11 126.336 129.649C126.487 129.188 126.51 128.727 126.409 128.27C126.308 127.814 126.088 127.385 125.749 126.984C125.354 126.522 124.933 126.204 124.479 126.038C124.025 125.872 123.575 125.84 123.117 125.941C122.663 126.043 122.223 126.273 121.801 126.638C121.508 126.891 121.269 127.163 121.086 127.454C120.902 127.744 120.779 128.049 120.719 128.372C120.659 128.69 120.678 129.008 120.77 129.331L117.753 130.387C117.349 129.598 117.138 128.81 117.115 128.017C117.092 127.223 117.276 126.444 117.656 125.683C118.037 124.922 118.624 124.198 119.417 123.52C120.352 122.718 121.333 122.215 122.37 122.017L122.365 122.021Z" fill="#7952B3"/>
<path d="M122.026 138.237L118.752 140.197L116.831 136.152L116.68 136.244C117.01 137.365 117.175 138.333 117.17 139.154C117.17 139.975 117.019 140.672 116.721 141.253C116.428 141.829 115.978 142.304 115.369 142.664C114.475 143.199 113.631 143.319 112.838 143.028C112.045 142.738 111.366 142.161 110.797 141.313C110.229 140.464 109.807 139.5 109.541 138.421L112.095 136.982C112.306 137.466 112.535 137.845 112.792 138.112C113.049 138.38 113.333 138.532 113.645 138.559C113.956 138.592 114.3 138.49 114.676 138.269C115.167 137.974 115.497 137.586 115.662 137.107C115.827 136.622 115.85 136.101 115.731 135.534C115.612 134.967 115.382 134.399 115.048 133.832L112.329 129.234L115.557 127.302L122.026 138.246V138.237Z" fill="#7952B3"/>
<path d="M104.461 133.952C105.539 134.123 106.488 134.598 107.304 135.373C108.12 136.147 108.776 137.194 109.262 138.509C109.757 139.837 109.949 141.068 109.835 142.194C109.725 143.319 109.307 144.297 108.583 145.127C107.859 145.957 106.855 146.616 105.562 147.101C104.319 147.566 103.173 147.719 102.123 147.557C101.073 147.391 100.147 146.921 99.3353 146.141C98.5238 145.362 97.8728 144.31 97.3776 142.978C96.887 141.663 96.6945 140.441 96.7953 139.311C96.8962 138.181 97.2997 137.199 98.0012 136.364C98.7026 135.529 99.6792 134.879 100.922 134.413C102.196 133.934 103.375 133.781 104.452 133.952H104.461ZM101.009 138.974C100.697 139.334 100.509 139.754 100.449 140.229C100.394 140.699 100.468 141.216 100.674 141.769C100.867 142.29 101.137 142.715 101.481 143.037C101.825 143.36 102.233 143.554 102.705 143.619C103.177 143.683 103.7 143.609 104.264 143.397C104.846 143.176 105.296 142.885 105.607 142.526C105.924 142.166 106.112 141.746 106.176 141.271C106.24 140.796 106.176 140.298 105.983 139.772C105.777 139.219 105.493 138.781 105.135 138.467C104.773 138.149 104.356 137.96 103.874 137.9C103.393 137.84 102.87 137.914 102.302 138.126C101.752 138.333 101.316 138.619 101.004 138.979L101.009 138.974Z" fill="#7952B3"/>
<path d="M95.1952 136.701L99.2115 154.148L95.5528 155.001L91.5365 137.554L95.1952 136.701Z" fill="#7952B3"/>
<path d="M90.8167 137.697L93.5768 155.388L89.863 155.974L87.103 138.283L90.8167 137.697Z" fill="#7952B3"/>
<path d="M80.9959 139.302C81.7295 139.865 82.2751 140.662 82.6282 141.691C82.9812 142.719 83.1279 143.946 83.0683 145.366C83.0087 146.838 82.7565 148.06 82.3118 149.042C81.8671 150.024 81.2619 150.749 80.4916 151.228C79.7259 151.703 78.809 151.92 77.7499 151.874C76.677 151.828 75.7921 151.45 75.0952 150.735C74.4029 150.02 73.8986 148.945 73.5868 147.511L73.3851 147.502C73.408 147.742 73.4218 147.917 73.4264 148.037C73.4264 148.157 73.4447 148.323 73.4676 148.544C73.5135 149.102 73.5456 149.591 73.5731 150.006C73.596 150.421 73.6143 150.799 73.6143 151.136L73.3943 156.481L69.6393 156.324L70.3774 138.43L74.1324 138.587L73.7519 141.695L73.9261 141.705C74.3663 140.469 74.9256 139.597 75.6133 139.085C76.3011 138.573 77.1951 138.338 78.3046 138.384C79.3637 138.43 80.2578 138.73 80.9914 139.297L80.9959 139.302ZM74.7881 142.941C74.2975 143.411 74.0361 144.084 73.9995 144.965C73.9765 145.523 74.0637 146.017 74.2562 146.45C74.4488 146.879 74.7422 147.22 75.1365 147.465C75.5308 147.709 76.0214 147.843 76.6082 147.871C77.2318 147.898 77.7453 147.815 78.1579 147.631C78.5706 147.446 78.8823 147.151 79.0886 146.745C79.2996 146.34 79.4188 145.823 79.4417 145.2C79.4646 144.61 79.3775 144.098 79.1758 143.665C78.974 143.231 78.6668 142.904 78.2588 142.673C77.8462 142.443 77.3647 142.318 76.81 142.295C75.9526 142.258 75.2786 142.475 74.7881 142.945V142.941Z" fill="#7952B3"/>
<path d="M67.8237 138.232C68.6214 138.979 69.1441 139.906 69.3917 141.008C69.6393 142.111 69.6026 143.346 69.2771 144.712C68.947 146.095 68.4243 147.22 67.709 148.092C66.9938 148.964 66.1044 149.54 65.0407 149.826C63.9816 150.108 62.7803 150.089 61.437 149.766C60.1441 149.457 59.1125 148.936 58.333 148.212C57.5536 147.488 57.0447 146.575 56.8063 145.473C56.5679 144.37 56.6091 143.13 56.9392 141.751C57.2648 140.386 57.7829 139.26 58.4935 138.379C59.2042 137.499 60.0844 136.908 61.1298 136.613C62.1751 136.318 63.3443 136.327 64.6372 136.636C65.9622 136.954 67.0213 137.489 67.8237 138.237V138.232ZM62.1706 140.455C61.7075 140.579 61.3224 140.819 61.0152 141.179C60.7034 141.539 60.4833 142.004 60.3458 142.581C60.2174 143.125 60.2037 143.623 60.3137 144.084C60.4191 144.546 60.653 144.933 61.006 145.256C61.3636 145.574 61.8359 145.809 62.4227 145.948C63.0279 146.095 63.5598 146.104 64.0228 145.98C64.4859 145.855 64.8756 145.616 65.192 145.256C65.5083 144.896 65.733 144.449 65.8614 143.905C65.9989 143.328 66.0035 142.807 65.8843 142.346C65.7605 141.88 65.5175 141.488 65.1553 141.165C64.7931 140.842 64.3163 140.612 63.7248 140.469C63.1517 140.33 62.6336 140.326 62.1751 140.45L62.1706 140.455Z" fill="#7952B3"/>
<path d="M54.7385 148.046L51.0431 146.234C51.5566 144.057 52.0426 142.189 52.5011 140.625C52.9596 139.062 53.441 137.559 53.9362 136.11C53.9362 136.074 53.9362 136.046 53.9453 136.032C53.9545 136.018 53.9637 135.995 53.9774 135.963L53.817 135.884C53.3493 136.539 52.8908 137.199 52.4369 137.858C51.7263 138.901 50.9468 140.026 50.0986 141.225C49.255 142.429 48.4481 143.549 47.6824 144.582L44.6702 143.102C44.9957 141.889 45.3579 140.625 45.7522 139.316C46.1465 138.001 46.5454 136.701 46.9443 135.414L47.742 132.901L47.5586 132.813C47.2927 133.21 47.0681 133.551 46.8893 133.841C46.1694 134.939 45.3671 136.106 44.473 137.342C43.5836 138.578 42.5291 139.952 41.3095 141.46L37.6141 139.648L46.1144 129.654L50.4425 131.78L47.5953 140.768L47.7099 140.824L52.9825 133.025L57.3565 135.174L54.7248 148.051L54.7385 148.046Z" fill="#7952B3"/>
<path d="M37.5362 122.874L33.4923 127.841C32.9605 128.496 32.6946 129.1 32.6946 129.658C32.6946 130.217 32.9788 130.728 33.5336 131.19C33.9508 131.531 34.4093 131.729 34.909 131.78C35.4088 131.831 35.9131 131.734 36.422 131.485C36.931 131.236 37.3986 130.844 37.8388 130.309L41.337 126.01L44.2438 128.404L36.2249 138.255L33.3181 135.861L36.4312 132.758L36.2937 132.647C35.3263 133.357 34.423 133.823 33.5932 134.044C32.7633 134.266 31.9977 134.289 31.3053 134.109C30.613 133.934 29.9528 133.588 29.3293 133.071C28.5728 132.449 28.1235 131.785 27.9676 131.079C27.8163 130.373 27.8942 129.645 28.2106 128.902C28.5269 128.155 29.0404 127.343 29.7511 126.467L34.6248 120.481L37.5316 122.874H37.5362Z" fill="#7952B3"/>
<path d="M23.2039 118.023C22.3466 117.875 21.6405 117.372 21.0811 116.505C20.8336 116.123 20.6731 115.726 20.5951 115.311C20.5172 114.896 20.4622 114.398 20.4255 113.817C20.398 113.369 20.3659 113.028 20.3338 112.788C20.2971 112.548 20.2238 112.336 20.1046 112.152C19.8753 111.797 19.5911 111.612 19.2564 111.603C18.9171 111.594 18.5824 111.695 18.2431 111.917L16.8126 109.703C17.858 109.057 18.807 108.804 19.6552 108.933C20.5034 109.066 21.2049 109.564 21.7643 110.427C22.0119 110.81 22.1769 111.206 22.2594 111.617C22.342 112.027 22.397 112.516 22.4245 113.083C22.4428 113.517 22.4749 113.858 22.5162 114.112C22.562 114.365 22.64 114.587 22.7592 114.767C22.9884 115.122 23.2635 115.32 23.5936 115.357C23.9237 115.394 24.2722 115.292 24.6527 115.043L26.0832 117.257C25.0241 117.912 24.0613 118.166 23.2085 118.018L23.2039 118.023Z" fill="#7952B3"/>
<path d="M19.4214 96.1301C19.1738 97.1586 18.6282 98.0533 17.7938 98.8142C16.9594 99.5706 15.8636 100.147 14.5065 100.534C13.1493 100.922 11.9114 100.996 10.7882 100.742C9.66945 100.493 8.72497 99.9764 7.96388 99.1924C7.19821 98.4084 6.64803 97.426 6.31334 96.2362C6.01532 95.1801 5.96489 94.1701 6.16204 93.2062C6.35919 92.2423 6.83143 91.4168 7.56959 90.7204C8.30775 90.024 9.31183 89.549 10.5864 89.2861L11.6088 92.4221C11.0999 92.602 10.7148 92.8326 10.4535 93.1093C10.1921 93.386 10.0362 93.7089 9.99039 94.0732C9.94454 94.4375 9.98122 94.8342 10.1004 95.2538C10.2563 95.8073 10.5131 96.25 10.8707 96.5775C11.2283 96.9049 11.6318 97.1217 12.0857 97.2185C12.5441 97.3154 13.021 97.2923 13.5207 97.1493C14.103 96.9833 14.5615 96.725 14.9053 96.3838C15.2446 96.0379 15.4647 95.6412 15.561 95.1801C15.6573 94.7235 15.6298 94.2254 15.4784 93.6858C15.373 93.3122 15.2263 92.9802 15.0383 92.6896C14.8503 92.3991 14.6257 92.1593 14.3643 91.9748C14.103 91.7857 13.805 91.6704 13.4795 91.6243L13.7775 88.4283C14.6578 88.3868 15.4601 88.5205 16.1845 88.8341C16.9089 89.1431 17.537 89.632 18.0689 90.2961C18.6007 90.9602 19.0042 91.7995 19.293 92.8049C19.6277 93.9948 19.6736 95.1017 19.4214 96.1301Z" fill="#7952B3"/>
<path d="M4.90579 89.0693L4.50233 85.2599L8.9588 85.1907L8.94046 85.0154C7.78966 84.8494 6.84518 84.5958 6.10702 84.2499C5.36886 83.904 4.80034 83.4751 4.39687 82.9678C3.99799 82.4605 3.75958 81.8517 3.68164 81.1461C3.5716 80.1038 3.8146 79.2829 4.41063 78.6833C5.00666 78.0838 5.80901 77.701 6.81309 77.5304C7.81717 77.3643 8.86252 77.3828 9.94913 77.5903L10.183 80.5235C9.6557 80.5096 9.22014 80.565 8.8671 80.6895C8.51865 80.814 8.2619 81.0077 8.10602 81.2798C7.95013 81.5519 7.89511 81.907 7.94096 82.3452C8.00057 82.917 8.21605 83.3782 8.58284 83.7287C8.94963 84.0792 9.41728 84.319 9.97663 84.4482C10.5406 84.5773 11.1458 84.605 11.7968 84.5312L17.0877 83.9639L17.4866 87.7226L4.90121 89.0739L4.90579 89.0693Z" fill="#7952B3"/>
<path d="M16.102 74.7817C15.5014 75.6994 14.6761 76.3682 13.6353 76.7971C12.5946 77.226 11.3796 77.3874 9.9858 77.2905C8.57825 77.1937 7.38619 76.857 6.4142 76.2898C5.44221 75.7225 4.73156 74.9339 4.27766 73.9285C3.82376 72.9231 3.64495 71.7286 3.74123 70.3451C3.83293 69.0122 4.17221 67.9008 4.75448 67.0107C5.33676 66.1206 6.15286 65.4657 7.18904 65.046C8.22521 64.6263 9.45395 64.4695 10.8615 64.5664C12.2553 64.6632 13.4382 64.9953 14.4193 65.5533C15.4005 66.116 16.1203 66.8908 16.5834 67.8777C17.0465 68.8692 17.2299 70.0314 17.1382 71.3597C17.0419 72.7248 16.6934 73.8685 16.0928 74.7817H16.102ZM12.9889 69.5426C12.7917 69.1045 12.4891 68.7632 12.0857 68.5141C11.6822 68.2651 11.187 68.1221 10.6002 68.0806C10.0454 68.0437 9.55482 68.1129 9.11926 68.2928C8.6837 68.4726 8.33984 68.7678 8.08308 69.1736C7.82633 69.5795 7.67962 70.0868 7.63835 70.6909C7.59709 71.3135 7.67045 71.8485 7.8676 72.282C8.06474 72.7202 8.36734 73.0661 8.77081 73.3243C9.17428 73.5826 9.6511 73.7302 10.2059 73.7671C10.7927 73.8086 11.3062 73.7302 11.7372 73.5319C12.1728 73.3336 12.5166 73.0292 12.7734 72.6141C13.0301 72.199 13.1769 71.6871 13.2227 71.083C13.264 70.4926 13.186 69.9807 12.9889 69.5426Z" fill="#7952B3"/>
<path d="M17.4499 65.1613L0 61.6194L0.742746 57.916L18.1927 61.4533L17.4499 65.1567V65.1613Z" fill="#7952B3"/>
<path d="M18.3623 60.7384L1.2104 55.9421L2.21449 52.2987L19.3664 57.0951L18.3623 60.7384Z" fill="#7952B3"/>
<path d="M20.9711 51.0905C20.155 51.5286 19.2105 51.69 18.1331 51.584C17.0556 51.4779 15.8865 51.1043 14.6302 50.4587C13.3282 49.7899 12.3241 49.052 11.6226 48.2357C10.9211 47.4194 10.5176 46.5616 10.4076 45.6623C10.2976 44.763 10.4855 43.836 10.9624 42.8859C11.4484 41.9221 12.1636 41.2718 13.0989 40.9351C14.0342 40.5985 15.2125 40.5846 16.6384 40.8982L16.7301 40.7184C16.5055 40.64 16.3404 40.58 16.2304 40.5339C16.1203 40.4878 15.9644 40.4278 15.7535 40.3586C15.2263 40.1649 14.7724 39.9943 14.3873 39.8421C14.0021 39.6899 13.6537 39.5469 13.3465 39.4086L8.60576 36.9781L10.3113 33.6115L26.1749 41.7376L24.4693 45.1043L21.8193 43.4624L21.7414 43.6192C22.6767 44.5324 23.2314 45.4133 23.4102 46.2526C23.589 47.092 23.424 48.0097 22.9197 49.0059C22.4382 49.956 21.7918 50.6477 20.9757 51.0859L20.9711 51.0905ZM20.2696 43.9006C20.0495 43.2549 19.5498 42.7338 18.7704 42.3371C18.2752 42.0835 17.7938 41.9543 17.3261 41.9497C16.8585 41.9497 16.4275 42.0743 16.0424 42.3325C15.6573 42.5908 15.3317 42.9828 15.0658 43.5085C14.7816 44.0666 14.6394 44.5739 14.6394 45.0259C14.6394 45.4778 14.7724 45.8883 15.0521 46.248C15.3317 46.6077 15.749 46.9306 16.3037 47.2165C16.8264 47.484 17.3261 47.6177 17.803 47.6131C18.2752 47.6131 18.7016 47.4655 19.0821 47.1842C19.4581 46.9029 19.7745 46.5155 20.0266 46.0174C20.4163 45.2472 20.4989 44.5416 20.2788 43.8959L20.2696 43.9006Z" fill="#7952B3"/>
<path d="M27.4403 39.4869C26.4317 39.9066 25.3771 39.9989 24.2768 39.7637C23.1764 39.5331 22.0761 38.9796 20.9803 38.1172C19.8707 37.241 19.0684 36.2955 18.5824 35.2763C18.0964 34.2571 17.9451 33.2056 18.1285 32.1172C18.3119 31.0287 18.8346 29.9403 19.6828 28.8473C20.5035 27.7958 21.4021 27.0671 22.3832 26.6567C23.3644 26.2462 24.4006 26.1632 25.4964 26.403C26.5921 26.6428 27.6925 27.2009 28.8066 28.0771C29.907 28.9442 30.7047 29.885 31.2045 30.8996C31.7042 31.9188 31.8693 32.9657 31.6997 34.0449C31.53 35.1241 31.0349 36.1941 30.2187 37.241C29.3797 38.3201 28.4536 39.0673 27.4449 39.4869H27.4403ZM27.7842 33.39C27.8667 32.915 27.8071 32.463 27.61 32.0295C27.4128 31.596 27.0827 31.1948 26.6196 30.8304C26.1841 30.4845 25.7348 30.2678 25.2717 30.1709C24.8132 30.0787 24.3639 30.1248 23.9237 30.3185C23.4836 30.5122 23.0801 30.8443 22.7088 31.3239C22.3236 31.8174 22.0944 32.3016 22.0119 32.772C21.9293 33.2471 21.9889 33.7036 22.1769 34.1418C22.3695 34.5845 22.6813 34.9765 23.1168 35.3178C23.5799 35.6821 24.0475 35.9081 24.5198 35.9865C24.992 36.0695 25.4459 36.0096 25.8906 35.8113C26.3354 35.613 26.7434 35.2717 27.1148 34.7967C27.477 34.3309 27.6971 33.8604 27.7796 33.3854L27.7842 33.39Z" fill="#7952B3"/>
<path d="M23.9971 23.4653L27.1698 20.8365C28.9258 22.2062 30.4159 23.4284 31.6401 24.4937C32.8642 25.5637 34.0288 26.6244 35.1337 27.6805C35.1658 27.6944 35.1887 27.7082 35.2025 27.722C35.2116 27.7359 35.23 27.7543 35.2483 27.782L35.3859 27.6667C34.987 26.9657 34.5835 26.2739 34.1709 25.5867C33.5198 24.5029 32.8275 23.3269 32.0894 22.0494C31.3512 20.7765 30.6726 19.5774 30.0537 18.4475L32.6395 16.303C33.6024 17.1055 34.5927 17.9587 35.6197 18.8626C36.6421 19.7665 37.6554 20.6705 38.6549 21.5698L40.5988 23.3454L40.7547 23.2162C40.5072 22.8104 40.2871 22.4645 40.1037 22.1785C39.4114 21.0671 38.687 19.8449 37.935 18.5167C37.1831 17.1885 36.3808 15.6527 35.5188 13.9141L38.6915 11.2853L44.2117 23.207L40.4934 26.2877L33.5382 19.9556L33.4419 20.034L38.311 28.091L34.556 31.204L23.9925 23.4606L23.9971 23.4653Z" fill="#7952B3"/>
<path d="M53.8903 18.1385L51.0706 12.3829C50.6993 11.6265 50.2591 11.1284 49.7548 10.9025C49.2504 10.6719 48.6728 10.718 48.0217 11.0408C47.5403 11.2806 47.1689 11.6173 46.9168 12.0554C46.66 12.4936 46.5408 12.9963 46.5591 13.5635C46.5729 14.1308 46.7334 14.7257 47.0406 15.3483L49.4797 20.3338L46.1098 22.0033L40.5163 10.5796L43.8862 8.91013L45.4083 13.047L45.5688 12.9686C45.3258 11.7879 45.28 10.7687 45.4221 9.91552C45.5642 9.06232 45.8622 8.3567 46.307 7.79405C46.7517 7.2314 47.3386 6.77483 48.063 6.4151C48.9387 5.98158 49.7273 5.84323 50.4288 5.99081C51.1302 6.143 51.7538 6.51656 52.2994 7.11611C52.845 7.71104 53.3676 8.51812 53.8628 9.53735L57.2602 16.4782L53.8903 18.1477V18.1385Z" fill="#7952B3"/>
<path d="M64.2292 7.04236C64.7197 6.31829 65.4717 5.88477 66.4849 5.73258C66.9342 5.66802 67.3606 5.68646 67.7687 5.78792C68.1767 5.88939 68.649 6.04619 69.19 6.25834C69.6026 6.41975 69.9281 6.53505 70.1574 6.60423C70.3866 6.6734 70.6113 6.69185 70.8268 6.65957C71.244 6.59961 71.5237 6.41514 71.675 6.11076C71.8263 5.80637 71.8721 5.45126 71.8125 5.05002L74.4075 4.66724C74.5542 5.894 74.3892 6.8671 73.9169 7.58656C73.4447 8.30601 72.702 8.73953 71.6887 8.89172C71.2394 8.95629 70.813 8.94245 70.4095 8.85021C70.0061 8.75798 69.5384 8.60117 69.0157 8.38903C68.6169 8.22761 68.2959 8.11231 68.0483 8.04313C67.8008 7.97857 67.5669 7.96012 67.3514 7.9924C66.9342 8.05236 66.6408 8.22761 66.4711 8.50893C66.3015 8.79026 66.2465 9.15921 66.3153 9.61117L63.7202 9.99396C63.5735 8.75336 63.7432 7.77103 64.2337 7.04697L64.2292 7.04236Z" fill="#7952B3"/>
</g>
<defs>
<clipPath id="clip0_92_138">
<rect width="155" height="156.49" fill="white"/>
</clipPath>
</defs>
</svg>
